<svg xmlns="http://www.w3.org/2000/svg" xmlns:xlink="http://www.w3.org/1999/xlink" viewBox="0 0 22.6 20.2">
	<path d="M19.5,7.5l-1-2.5c0,0,0-0.1-0.1-0.1l-5.9-4.6c0,0-0.1,0-0.1,0L9.8,0c0,0-0.1,0-0.1,0L2.8,2.9c0,0-0.1,0-0.1,0.1L1,5c0,0,0,0.1,0,0.1l-1,7.4c0,0,0,0.1,0,0.1l1,2.5c0,0,0,0.1,0.1,0.1L7,19.8c0,0,0.1,0,0.1,0l2.6,0.4h0c0,0,0.1,0,0.1,0l6.9-2.8c0,0,0.1,0,0.1-0.1l1.6-2.1c0,0,0-0.1,0-0.1l1-7.4C19.5,7.6,19.5,7.6,19.5,7.5z M18,5.2l-1.5,5.6L9.9,9.9L7.4,3.7l5-2.9L18,5.2zM5.8,15.6l4.1-5.3l6.6,0.9V17l-6.6,2.7L5.8,15.6z M3,3.2l6.8-2.8l1.9,0.3L7,3.4L1.8,4.8L3,3.2z M1.4,5.3L7,3.9l2.5,6.2l-4.1,5.3l-5-2.9L1.4,5.3z M1.4,14.9l-0.7-1.8l4.7,2.7l3.8,3.9l-1.9-0.3L1.4,14.9z M18,14.9l-1.2,1.6v-5.4l1.4-5.2L19,7.7L18,14.9z"/>
</svg>