<?xml version="1.0" encoding="utf-8"?>
<!-- Generator: Adobe Illustrator 21.0.2, SVG Export Plug-In . SVG Version: 6.00 Build 0)  -->
<svg version="1.1" id="Слой_1" xmlns="http://www.w3.org/2000/svg" xmlns:xlink="http://www.w3.org/1999/xlink" x="0px" y="0px"
	 viewBox="0 0 157 132" style="enable-background:new 0 0 157 132;" xml:space="preserve">
<path d="M119.7,14.7L76.1,0L32.6,14.7L0,86.1L36.2,128H116l36.2-41.9L119.7,14.7z M54.6,41.6h19.9v25l-25.8,6.2L54.6,41.6z
	 M77.7,41.6h19.9l5.9,31.2l-25.8-6.2V41.6z M98.2,38.4H77.7V4l38,12.8L98.2,38.4z M74.5,38.4H54L36.5,16.8L74.5,4V38.4z M51.5,40.5
	l-6.3,33.2L4.8,83.4L34.1,19L51.5,40.5z M44.6,77.2L36,122.8l-31.1-36L44.6,77.2z M48,76.4l28.1-6.8l28.1,6.8l9.1,48.4H38.9L48,76.4
	z M107.7,77.2l39.7,9.6l-31.1,36L107.7,77.2z M107,73.7l-6.3-33.2L118.1,19l29.4,64.4L107,73.7z"/>
</svg>
