<?xml version="1.0" encoding="utf-8"?>
<!-- Generator: Adobe Illustrator 21.0.2, SVG Export Plug-In . SVG Version: 6.00 Build 0)  -->
<svg version="1.1" id="Слой_1" xmlns="http://www.w3.org/2000/svg" xmlns:xlink="http://www.w3.org/1999/xlink" x="0px" y="0px"
	 viewBox="0 0 136 156" style="enable-background:new 0 0 136 156;" xml:space="preserve">
<path d="M135,38.4L68.8,0.2c-0.5-0.3-1.2-0.3-1.7,0L0.9,38.4C0.3,38.7,0,39.2,0,39.8v76.3c0,0.6,0.3,1.2,0.9,1.5l66.3,38.2
	c0.5,0.3,1.2,0.3,1.7,0l66.3-38.2c0.5-0.3,0.9-0.9,0.9-1.5V39.8C136,39.2,135.6,38.6,135,38.4z M68,3.6l62.9,36.2L68,76L5.1,39.8
	L68,3.6z M3.4,42.8L66.3,79v72.4L3.4,115.2V42.8z M69.7,151.3V79l62.9-36.2v72.4L69.7,151.3z"/>
</svg>
