<?xml version="1.0" encoding="utf-8"?>
<!-- Generator: Adobe Illustrator 21.0.2, SVG Export Plug-In . SVG Version: 6.00 Build 0)  -->
<svg version="1.1" id="Слой_1" xmlns="http://www.w3.org/2000/svg" xmlns:xlink="http://www.w3.org/1999/xlink" x="0px" y="0px"
	 viewBox="0 0 25.8 17.4" style="enable-background:new 0 0 25.8 17.4;" xml:space="preserve">
<path d="M25.9,17.5H2.4c-1.4,0-2.5-1.1-2.5-2.5V3.8h1V15c0,0.8,0.7,1.5,1.5,1.5h22.5V2.4c0-0.8-0.7-1.5-1.5-1.5H1.7l10,8.9
	c0.7,0.6,1.6,0.6,2.3,0l9.5-8.5l0.7,0.7l-9.5,8.5c-1.1,1-2.6,1-3.7,0l-12-10.7h24.3c1.4,0,2.5,1.1,2.5,2.5V17.5z"/>
<rect x="1.7" y="10.9" transform="matrix(0.7012 -0.7129 0.7129 0.7012 -6.3199 7.7194)" width="8.7" height="1"/>
<rect x="21.3" y="8.5" transform="matrix(0.7121 -0.7021 0.7021 0.7121 -3.1666 19.178)" width="1" height="10"/>
</svg>
