<svg version="1.1" id="Слой_1" xmlns="http://www.w3.org/2000/svg" xmlns:xlink="http://www.w3.org/1999/xlink" x="0px" y="0px" viewBox="0 0 127.5 127.5" style="enable-background:new 0 0 127.5 127.5;" xml:space="preserve">
	<path fill="#FFFFFF" d="M99.7,26.8l-4.9,4.1c8.7,8.3,14.2,19.9,14.2,32.8c0,25-20.3,45.3-45.3,45.3c-23.9,0-43.5-18.6-45.2-42.1h55.1
	L55.7,84.8c-1.2,1.2-1.2,3.3,0,4.5c0.6,0.6,1.4,0.9,2.2,0.9c0.8,0,1.6-0.3,2.2-0.9L83.4,66c1.2-1.2,1.2-3.3,0-4.5L60.1,38.2
	c-1.2-1.2-3.3-1.2-4.5,0c-1.2,1.2-1.2,3.3,0,4.5l18,17.8H15.3c-1.8,0-3.2,1.4-3.2,3.2c0,28.5,23.2,51.6,51.6,51.6
	c28.4,0,51.6-23.2,51.6-51.6C115.4,49.3,109.4,36.2,99.7,26.8z"/>
	<defs>
		<linearGradient id="SVGID_1_" gradientUnits="userSpaceOnUse" x1="17.2914" y1="90.8751" x2="92.2139" y2="109.4072" gradientTransform="matrix(1 0 0 -1 0 130)">
			<stop offset="0" style="stop-color:#FFFFFF;stop-opacity:0"/>
			<stop offset="1" style="stop-color:#FFFFFF"/>
		</linearGradient>
	</defs>
	<path fill="url(#SVGID_1_)#fff" d="M63.8,12.1c-17.2,0-33.2,8.5-42.8,22.8c-1,1.5-0.6,3.4,0.9,4.4s3.4,0.6,4.4-0.9c8.4-12.5,22.5-20,37.5-20
	c14.5,0,27.3,6.9,35.6,17.5l4.8-4.1C94.8,19.8,80.2,12.1,63.8,12.1z"/>
</svg>
