<svg xmlns="http://www.w3.org/2000/svg" viewBox="0 0 3204.7 571.44">
	<g id="OSD_logo_Изображение" data-name="OSD_logo Изображение">
		<polygon points="264.61 466.6 272.59 447.81 272.59 447.81 264.61 466.6" /><path d="M123.85,288.74c0-88.11,71.83-159.55,160.44-159.55a160.31,160.31,0,0,1,106.55,40.3L440.52,52.57A284,284,0,0,0,284.29,6C127.28,6,0,132.6,0,288.74,0,394.09,58,485.92,143.93,534.55l128.25-86.77C189.24,441.62,123.85,372.79,123.85,288.74Z" /><path d="M440.52,52.57,390.84,169.49a158.74,158.74,0,0,1,53.89,119.24c0,88.11-71.83,159.55-160.44,159.55-3.94,0-7.83-.19-11.7-.47l-8,18.79L222.9,564.76a286.61,286.61,0,0,0,61.39,6.68c157,0,284.29-126.57,284.29-282.71C568.59,190,517.65,103.13,440.52,52.57Z"  opacity="0.7"/><path d="M664.14,523.66l50.51-126.35H613C613.66,450.45,631.5,493.15,664.14,523.66Z" /><polygon points="2914.57 403.65 3063.92 30.5 2914.57 1.64 2743.4 1.64 2743.4 106.54 2914.57 106.54 2914.57 403.65" /><polygon points="3204.7 1.64 3075.47 1.64 2914.57 403.65 2914.57 570.62 3033.53 570.62 3033.53 106.54 3204.7 106.54 3204.7 1.64"  opacity="0.7"/><polygon points="2085.07 571.44 2205.29 571.44 2145.18 421.17 2085.07 571.44" /><polygon points="1976.71 0 1855.04 0 1626.46 571.44 1748.14 571.44 1976.71 0" /><polygon points="1915.88 152.1 1961.65 266.54 2007.97 152.1 1915.88 152.1" /><polygon points="2036.71 152.1 2007.97 152.1 1961.65 266.54 1988.63 333.98 1934.36 334 1889.8 445.41 2032.92 445.41 2085.07 571.44 2145.18 421.17 2036.71 152.1"  opacity="0.7"/><path d="M2573.92,553.27l53.74-134.35-30.12-38.46c70.84-27.54,121.38-99.44,121.38-183.81h0c0-108.15-83-195.82-185.43-195.82H2457.6l-42,104.9h101c46,0,83.33,39.4,83.33,88v5.83c0,48.6-37.31,88-83.33,88H2357.4V251.33l-119,297.38v22.73h119v-179h103Z" /><polygon points="2573.92 553.27 2586.8 571.44 2711.77 571.44 2627.66 418.91 2573.92 553.27"  opacity="0.7"/><polygon points="2352.33 0.82 2297.92 0.82 2238.44 0.82 2238.44 285.31 2238.49 285.42 2352.33 0.82" /><polygon points="2238.44 285.31 2295.39 406.36 2357.4 251.33 2357.4 105.72 2415.64 105.72 2457.6 0.82 2352.33 0.82 2238.44 285.31"  opacity="0.7"/><path d="M1394,15.47l-42.1,102.48c67.9,24.07,116.7,90.33,116.7,168.36,0,98.35-77.5,178.08-173.1,178.08H1210v-1l-43,104.54h151.77A266.26,266.26,0,0,0,1429,544.18L1582.7,211.25C1557.38,116.83,1485.49,42.32,1394,15.47Z" /><path d="M1210,463.42V108.23h85.54a168.41,168.41,0,0,1,56.4,9.72L1394,15.47a266.53,266.53,0,0,0-75.22-10.83H1089.11V568h77.94Z"  opacity="0.7"/><path d="M990,282.23,873.22,567.85c92.25-13.22,173.26-64.12,173.26-173.05C1046.49,342.29,1025.93,307.55,990,282.23Z" /><path d="M781.67,324.29l43.18-102.61c-69.08-17.81-105.55-28.12-105.55-65.74,0-39.17,33-62.21,88.33-62.21,26.68,0,48.31,5,64.87,14.72l39-92.65c-29-10.15-61.92-15-96.94-15C687,.8,604.1,65.31,604.1,164.39c0,111.37,85.25,133.64,174.34,159Z" /><g opacity="0.7"><path d="M872.5,108.45c23,13.44,36.14,35.88,38.82,66.69H1025c-1.61-85-47.14-136.1-113.5-159.34Z" /><path d="M873.22,567.85,990,282.23c-26.64-18.76-61.72-32.35-103.23-44.12-22.9-6.45-43.53-11.71-61.89-16.44L781.67,324.29c110.34,31.48,146.54,39.44,146.54,82,0,45.31-38.4,73-101.38,73-34.54,0-77.67-12.54-98.92-27.25l-37.89,90c44.87,19.95,73.35,29.38,131.42,29.38A366.1,366.1,0,0,0,873.22,567.85Z" /></g>
	</g>
</svg>