<?xml version="1.0" encoding="utf-8"?>
<!-- Generator: Adobe Illustrator 21.0.2, SVG Export Plug-In . SVG Version: 6.00 Build 0)  -->
<svg version="1.1" id="Слой_1" xmlns="http://www.w3.org/2000/svg" xmlns:xlink="http://www.w3.org/1999/xlink" x="0px" y="0px"
	 viewBox="0 0 24.5 24.5" style="enable-background:new 0 0 24.5 24.5;" xml:space="preserve">
<path d="M12.3,1.5C18.2,1.5,23,6.3,23,12.3S18.2,23,12.3,23S1.5,18.2,1.5,12.3S6.3,1.5,12.3,1.5C12.3,1.5,12.3,1.5,12.3,1.5 M12.3,0
	C5.5,0,0,5.5,0,12.3s5.5,12.3,12.3,12.2c6.8,0,12.2-5.5,12.3-12.3C24.5,5.5,19,0,12.3,0z"/>
<path d="M12.3,17.8C5.9,17.8,1,15.3,1,12c0-1.6,1.2-3.1,3.4-4.2l0.4,0.9C3,9.6,2,10.8,2,12c0,2.7,4.6,4.8,10.3,4.8
	c5.6,0,10.3-2.2,10.3-4.8s-4.7-4.8-10.3-4.8v-1c6.3,0,11.3,2.6,11.3,5.8S18.6,17.8,12.3,17.8z"/>
<path d="M12.3,23.3c-3.2,0-5.8-5-5.8-11.3C6.5,5.7,9,0.8,12.3,0.8c1.6,0,3,1.2,4.1,3.3l-0.9,0.5c-0.9-1.7-2.1-2.7-3.2-2.7
	C9.6,1.8,7.5,6.3,7.5,12c0,5.7,2.1,10.3,4.8,10.3c2.6,0,4.8-4.7,4.8-10.3h1C18.1,18.3,15.5,23.3,12.3,23.3z"/>
</svg>
