<?xml version="1.0" encoding="utf-8"?>
<!-- Generator: Adobe Illustrator 21.0.2, SVG Export Plug-In . SVG Version: 6.00 Build 0)  -->
<svg version="1.1" id="Слой_1" xmlns="http://www.w3.org/2000/svg" xmlns:xlink="http://www.w3.org/1999/xlink" x="0px" y="0px" viewBox="0 0 20.3 20.3" style="enable-background:new 0 0 20.3 20.3;" xml:space="preserve">
	<circle fill="none" stroke-miterlimit="10" cx="10.2" cy="10.2" r="9.8"/>
	<path fill="none" stroke-miterlimit="10" d="M14.8,5.8c0.4,1.4,0.6,2.9,0.6,4.4c0,5.3-2.4,9.5-5.3,9.5c-2,0-3.7-2-4.6-4.9"/>
	<path fill="none" stroke-miterlimit="10" d="M5.2,13.2c-0.2-1-0.3-2-0.3-3.1c0-5.3,2.4-9.5,5.3-9.5c1.6,0,3,1.3,4,3.3"/>
	<path fill="none" stroke-miterlimit="10" d="M13.1,14.4c-1-0.1-2-0.2-3-0.2c-2.8,0-5.5,0.5-8,1.7"/>
	<path fill="none" stroke-miterlimit="10" d="M18.1,15.9c-1.1-0.5-2.2-0.9-3.4-1.2"/>
	<path fill="none" stroke-miterlimit="10" d="M7.2,6.1c1,0.1,2,0.2,3,0.2c2.8,0,5.5-0.5,8-1.7"/>
	<path fill="none" stroke-miterlimit="10" d="M2.2,4.6c1.1,0.5,2.2,0.9,3.3,1.2"/>
	<line fill="none" stroke-miterlimit="10" x1="6.7" y1="10.2" x2="15.3" y2="10.2"/>
	<line fill="none" stroke-miterlimit="10" x1="17" y1="10.2" x2="19.9" y2="10.2"/>
	<line fill="none" stroke-miterlimit="10" x1="0.7" y1="10.2" x2="4.9" y2="10.2"/>
	<line fill="none" stroke-miterlimit="10" x1="10.2" y1="16.2" x2="10.2" y2="19.7"/>
	<line fill="none" stroke-miterlimit="10" x1="10.2" y1="2.1" x2="10.2" y2="14.1"/>
</svg>
